<svg xmlns="http://www.w3.org/2000/svg" 
xmlns:xlink="http://www.w3.org/1999/xlink" 
viewBox="0 0 52.62 58.63" 
height="33px" width="33px" 
fill="#ff5d3b"><defs><style>.cls-1{fill:#fff;}.cls-2,.cls-3,.cls-4,.cls-5,.cls-6,.cls-7,.cls-8,.cls-9{stroke-miterlimit:10;stroke-width:0.5px;}.cls-2{fill:url(#linear-gradient);stroke:url(#linear-gradient-2);}.cls-3{fill:url(#linear-gradient-3);stroke:url(#linear-gradient-4);}.cls-4{fill:url(#linear-gradient-5);stroke:url(#linear-gradient-6);}.cls-5{fill:url(#linear-gradient-7);stroke:url(#linear-gradient-8);}.cls-6{fill:url(#linear-gradient-9);stroke:url(#linear-gradient-10);}.cls-7{fill:url(#linear-gradient-11);stroke:url(#linear-gradient-12);}.cls-8{fill:url(#linear-gradient-13);stroke:url(#linear-gradient-14);}.cls-9{fill:url(#linear-gradient-15);stroke:url(#linear-gradient-16);}</style><linearGradient id="linear-gradient" x1="18.49" y1="32.1" x2="34.57" y2="32.1" gradientUnits="userSpaceOnUse"><stop offset="0" stop-color="#ff5d3b"></stop><stop offset="1" stop-color="#ff0e41"></stop></linearGradient><linearGradient id="linear-gradient-2" x1="18.24" y1="32.1" x2="34.82" y2="32.1" xlink:href="#linear-gradient"></linearGradient><linearGradient id="linear-gradient-3" x1="12.32" y1="30.43" x2="23.81" y2="30.43" xlink:href="#linear-gradient"></linearGradient><linearGradient id="linear-gradient-4" x1="12.07" y1="30.43" x2="24.06" y2="30.43" xlink:href="#linear-gradient"></linearGradient><linearGradient id="linear-gradient-5" x1="8.45" y1="22.02" x2="17.46" y2="22.02" xlink:href="#linear-gradient"></linearGradient><linearGradient id="linear-gradient-6" x1="8.2" y1="22.02" x2="17.71" y2="22.02" xlink:href="#linear-gradient"></linearGradient><linearGradient id="linear-gradient-7" x1="31.74" y1="23.1" x2="36.86" y2="23.1" xlink:href="#linear-gradient"></linearGradient><linearGradient id="linear-gradient-8" x1="31.49" y1="23.1" x2="37.11" y2="23.1" xlink:href="#linear-gradient"></linearGradient><linearGradient id="linear-gradient-9" x1="11.62" y1="45.34" x2="18.85" y2="45.34" xlink:href="#linear-gradient"></linearGradient><linearGradient id="linear-gradient-10" x1="11.37" y1="45.34" x2="19.1" y2="45.34" xlink:href="#linear-gradient"></linearGradient><linearGradient id="linear-gradient-11" x1="18.34" y1="39.7" x2="39.81" y2="39.7" xlink:href="#linear-gradient"></linearGradient><linearGradient id="linear-gradient-12" x1="18.09" y1="39.7" x2="40.06" y2="39.7" xlink:href="#linear-gradient"></linearGradient><linearGradient id="linear-gradient-13" x1="32.59" y1="30.89" x2="44.7" y2="30.89" xlink:href="#linear-gradient"></linearGradient><linearGradient id="linear-gradient-14" x1="32.34" y1="30.89" x2="44.95" y2="30.89" xlink:href="#linear-gradient"></linearGradient><linearGradient id="linear-gradient-15" x1="25.1" y1="20.89" x2="27.74" y2="20.89" gradientTransform="translate(47.31 -5.53) rotate(90)" xlink:href="#linear-gradient"></linearGradient><linearGradient id="linear-gradient-16" x1="24.85" y1="20.89" x2="27.99" y2="20.89" gradientTransform="translate(47.31 -5.53) rotate(90)" xlink:href="#linear-gradient"></linearGradient></defs><g id="Layer_2" data-name="Layer 2"><g id="Layer_1-2" data-name="Layer 1"><circle class="cls-1" cx="26.31" cy="32.32" r="26.31"></circle><rect class="cls-1" x="24.6" y="2.91" width="2.38" height="3.71"></rect><path class="cls-2" d="M26.53,40.14a8.05,8.05,0,0,1-5.13-1.85,1.32,1.32,0,1,1,1.69-2,5.39,5.39,0,1,0-1.95-4.15,1.33,1.33,0,0,1-2.65,0,8,8,0,1,1,8,8Z"></path><path class="cls-3" d="M16.89,41.71a1.31,1.31,0,0,1-1-.42A13.45,13.45,0,0,1,22.13,19.2a1.32,1.32,0,0,1,.71,2.55,10.8,10.8,0,0,0-7.46,13.3,10.57,10.57,0,0,0,2.48,4.43,1.33,1.33,0,0,1-1,2.23Z"></path><path class="cls-4" d="M9.78,27.25a1.35,1.35,0,0,1-1.29-1.66,13.45,13.45,0,0,1,7.06-8.66,1.33,1.33,0,0,1,1.17,2.38,10.76,10.76,0,0,0-5.66,7A1.34,1.34,0,0,1,9.78,27.25Z"></path><path class="cls-5" d="M35.54,25.64a1.33,1.33,0,0,1-1.06-.52A10.24,10.24,0,0,0,32.28,23a1.33,1.33,0,0,1,1.57-2.14,13.44,13.44,0,0,1,2.74,2.69,1.32,1.32,0,0,1-1.05,2.13Z"></path><path class="cls-6" d="M17.52,48.62a1.37,1.37,0,0,1-.58-.14,13.5,13.5,0,0,1-5.08-4.32,1.33,1.33,0,0,1,.32-1.85,1.32,1.32,0,0,1,1.84.32A10.85,10.85,0,0,0,18.1,46.1a1.33,1.33,0,0,1-.58,2.52Z"></path><path class="cls-7" d="M26.43,46.36A13.38,13.38,0,0,1,18.92,44a1.32,1.32,0,1,1,1.49-2.19,10.79,10.79,0,0,0,16.76-7.64,1.32,1.32,0,0,1,2.63.32,13.52,13.52,0,0,1-2.22,5.92A13.35,13.35,0,0,1,29,46.11,13.88,13.88,0,0,1,26.43,46.36Z"></path><rect class="cls-8" x="32.59" y="29.57" width="12.11" height="2.64" rx="1.32"></rect><rect class="cls-9" x="21.46" y="19.57" width="9.91" height="2.64" rx="1.32" transform="translate(5.53 47.31) rotate(-90)"></rect><rect class="cls-1" x="13.74" y="6.89" width="2.38" height="3.71" transform="translate(-2.37 8.64) rotate(-30)"></rect><rect class="cls-1" x="10.94" y="5.28" width="4.88" height="1.91" rx="0.96" transform="translate(-1.32 7.53) rotate(-30)"></rect><rect class="cls-1" x="35.35" y="7.28" width="3.71" height="2.38" transform="translate(11.22 36.41) rotate(-59.91)"></rect><rect class="cls-1" x="37.8" y="3.53" width="1.91" height="4.88" rx="0.96" transform="translate(14.16 36.51) rotate(-59.91)"></rect><rect class="cls-1" x="20.1" width="11.39" height="3.44" rx="1.72"></rect></g></g></svg>