<svg xmlns="http://www.w3.org/2000/svg" xmlns:xlink="http://www.w3.org/1999/xlink" viewBox="0 0 825.18 446.18"><defs><style>.cls-1{fill:none;}.cls-2{fill:#e7f3fe;}.cls-3{fill:#9bd6e8;}.cls-4{fill:#9ec8ff;}.cls-5{fill:#fff;}.cls-6{clip-path:url(#clip-path);}.cls-7{fill:#a2dff2;}.cls-8{fill:#9cd499;}.cls-9{fill:#f39892;}.cls-10{fill:#2e5b9a;}.cls-11{fill:#232e4f;}.cls-12{fill:#3e6bab;}.cls-13{fill:#f37168;}.cls-14{fill:#212d51;}.cls-15{fill:#5d9ef5;}.cls-16{fill:#303c60;}.cls-17{fill:#4476bd;}.cls-18{fill:#d54a41;}.cls-19{fill:#85baff;}.cls-20{fill:#f09959;}.cls-21{fill:#96cfe0;}.cls-22{fill:#e38540;}.cls-23{fill:#1b243d;}.cls-24{fill:#ffd24f;}.cls-25{fill:#edc055;}.cls-26{fill:#2a66c6;}.cls-27{fill:#63acc2;}.cls-28{fill:#0f2d5c;}</style><clipPath id="clip-path"><path class="cls-1" d="M157.56,37.29a68.37,68.37,0,1,0,68.37,68.36A68.37,68.37,0,0,0,157.56,37.29Zm0,104.58a36.22,36.22,0,1,1,36.22-36.22A36.21,36.21,0,0,1,157.56,141.87Z"/></clipPath></defs><g id="Layer_2" data-name="Layer 2"><g id="Layer_1-2" data-name="Layer 1"><path class="cls-2" d="M57,418s-92.62-73.63-41.62-175.6S-4.76,105.11,44.69,84.1s76.8,24.75,213.71-13.25,412-101.13,474.79-54.14-116.86,176.11-32,175.13c171.79-2,139.41,174.67,56.32,231.67C715.41,452.42,57,418,57,418Z"/><path class="cls-3" d="M807.44,427.3C680.6,375.71,77,398.23,37.89,413.54s7.62,25.61,108.4,19.95,230.45.63,341.83,3.66S889.67,460.75,807.44,427.3Z"/><path class="cls-4" d="M646.67,131.9a91.38,91.38,0,0,0,.57-10.12c0-1.81-.06-3.6-.16-5.38L630.35,111a73.46,73.46,0,0,0-5.92-20L635.52,77.3a90.08,90.08,0,0,0-8.79-12.77L610,70a74.54,74.54,0,0,0-16.56-12.73l.95-17.57a89.07,89.07,0,0,0-14.6-5.18L569.46,48.76a74.11,74.11,0,0,0-20.88-.55L539,33.43a89.57,89.57,0,0,0-14.86,4.39l0,17.6A74.61,74.61,0,0,0,507,67.26l-16.41-6.33a90.35,90.35,0,0,0-9.45,12.29l10.36,14.21a73.56,73.56,0,0,0-7,19.7l-17,4.52a91.56,91.56,0,0,0-.57,10.13c0,1.8.06,3.59.16,5.37l16.73,5.42a73.57,73.57,0,0,0,5.92,20l-11.09,13.65A91.23,91.23,0,0,0,487.43,179l16.73-5.46a74,74,0,0,0,16.56,12.73l-1,17.58a89.75,89.75,0,0,0,14.61,5.17L544.7,194.8a74.53,74.53,0,0,0,20.88.54l9.57,14.79a89.2,89.2,0,0,0,14.85-4.4l0-17.6a73.88,73.88,0,0,0,17.21-11.84l16.42,6.34a91.8,91.8,0,0,0,9.45-12.29L622.7,156.12a73.42,73.42,0,0,0,7-19.7Zm-89.59,25.24a35.37,35.37,0,1,1,35.36-35.36A35.36,35.36,0,0,1,557.08,157.14Z"/><path class="cls-5" d="M605.31,162.11a1.27,1.27,0,0,1-.84-.31,1.32,1.32,0,0,1-.18-1.86,59.81,59.81,0,0,0,10.55-57.62,1.32,1.32,0,1,1,2.5-.86,62.5,62.5,0,0,1-11,60.17A1.31,1.31,0,0,1,605.31,162.11Z"/><path class="cls-5" d="M600.19,78.64a1.35,1.35,0,0,1-.91-.36,59.51,59.51,0,0,0-20.56-12.67,1.32,1.32,0,0,1,.9-2.48A62.07,62.07,0,0,1,601.1,76.36a1.32,1.32,0,0,1-.91,2.28Z"/><path class="cls-5" d="M543.36,63.9a1.32,1.32,0,0,1-.32-2.6,62.45,62.45,0,0,1,15.31-1.89,1.32,1.32,0,0,1,0,2.64,60.07,60.07,0,0,0-14.66,1.81A1.24,1.24,0,0,1,543.36,63.9Z"/><path class="cls-4" d="M765.39,155a64.86,64.86,0,0,0,.39-7c0-1.25,0-2.49-.11-3.73l-11.59-3.75a50.83,50.83,0,0,0-4.1-13.88l7.68-9.45a62.77,62.77,0,0,0-6.08-8.85L740,112.06a51.58,51.58,0,0,0-11.47-8.81l.66-12.18a62.61,62.61,0,0,0-10.12-3.58l-7.15,9.87A51.36,51.36,0,0,0,697.44,97l-6.62-10.24a63.24,63.24,0,0,0-10.29,3V102a51.06,51.06,0,0,0-11.92,8.2l-11.37-4.39a62.84,62.84,0,0,0-6.54,8.51l7.17,9.85A51.15,51.15,0,0,0,653,137.79l-11.76,3.14a62.4,62.4,0,0,0-.4,7q0,1.88.12,3.72l11.58,3.75a51.33,51.33,0,0,0,4.1,13.88L649,178.75a63.32,63.32,0,0,0,6.09,8.84l11.58-3.78a51.45,51.45,0,0,0,11.48,8.82l-.66,12.17a62.19,62.19,0,0,0,10.11,3.59l7.16-9.88a51.29,51.29,0,0,0,14.46.38l6.63,10.24a61.87,61.87,0,0,0,10.29-3l0-12.19A51.67,51.67,0,0,0,738,185.7l11.37,4.38a62.29,62.29,0,0,0,6.55-8.51l-7.18-9.85a50.9,50.9,0,0,0,4.84-13.64Zm-62.06,17.48a24.5,24.5,0,1,1,24.5-24.49A24.49,24.49,0,0,1,703.33,172.43Z"/><path class="cls-5" d="M736.74,176.28a1.31,1.31,0,0,1-.85-.31,1.33,1.33,0,0,1-.17-1.86A41,41,0,0,0,743,134.59a1.32,1.32,0,1,1,2.5-.86,43.66,43.66,0,0,1-7.69,42.07A1.32,1.32,0,0,1,736.74,176.28Z"/><path class="cls-5" d="M733.19,118.47a1.3,1.3,0,0,1-.9-.36,40.73,40.73,0,0,0-14.1-8.69,1.32,1.32,0,0,1-.8-1.69,1.34,1.34,0,0,1,1.7-.8,43.55,43.55,0,0,1,15,9.25,1.32,1.32,0,0,1-.91,2.29Z"/><path class="cls-5" d="M693.83,108.26a1.32,1.32,0,0,1-.32-2.6,43.68,43.68,0,0,1,10.7-1.33,1.32,1.32,0,0,1,0,2.64,40.81,40.81,0,0,0-10.05,1.25A1.24,1.24,0,0,1,693.83,108.26Z"/><g class="cls-6"><path class="cls-7" d="M219.35,143.44l-61.79-37.79-11.17,71.56A72.48,72.48,0,0,0,219.35,143.44Z"/><path class="cls-8" d="M219.42,143.35c.17-.27.38-.64.38-.63a72.45,72.45,0,0,0,1.6-71.3c-21.87,11.46-8.85,4.5-63.84,34.23C219.46,143.5,209.84,137.66,219.42,143.35Z"/><path class="cls-4" d="M89.64,80.63l67.92,25L221.28,71.2C191.48,16.08,111.25,22.69,89.64,80.63Z"/><path class="cls-9" d="M146.39,177.21l11.17-71.56-67.92-25C73.49,123.93,102.16,170.24,146.39,177.21Z"/><path class="cls-2" d="M222.62,142.62a75.13,75.13,0,0,0,1.88-70.43l0,0-1.14-2.11-.08-.13-.93-1.74,0,0a74,74,0,0,0-29.85-29A75.44,75.44,0,0,0,88.27,77.56l0,0-.84,2.25-.84,2.26h0a73.9,73.9,0,0,0,6.33,61.06,74.88,74.88,0,0,0,50.73,36v0l2.37.38,2.38.37v0a73.16,73.16,0,0,0,9.22.58,75,75,0,0,0,62.57-33.9l0,0,.47-.77h0l.75-1.27.34-.56.05-.09a.21.21,0,0,1,0-.06l.76-1.25Zm-7.24-65.34,5-2.61a70.3,70.3,0,0,1-1.8,65.38l-.46-.27c-2.53-1.49-3.62-2.14-8.65-5.21l-47.08-28.79,39.08-21.13C207.2,81.56,209.55,80.33,215.38,77.28ZM92.77,79.22a70.07,70.07,0,0,1,125.22-9L199.17,80.42l-18.41,10-22.54,12.2-.58.31-1.89-1.16-.11.66-29.76-11Zm4.3,61.47a69.12,69.12,0,0,1-6-57l44.75,16.49,19,7-10.5,67.19A70.09,70.09,0,0,1,97.07,140.69Zm52.07,34.48,10.24-65.59L186,125.89l20.77,12.69,9.2,5.63A69.72,69.72,0,0,1,149.14,175.17Z"/></g><circle class="cls-10" cx="346.95" cy="218.48" r="196.15"/><circle class="cls-11" cx="346.69" cy="220.53" r="158.44"/><circle class="cls-5" cx="346.95" cy="215.91" r="150.47"/><path class="cls-12" d="M347,221.19a5.28,5.28,0,0,1-2.63-9.87l57-32.71a5.29,5.29,0,0,1,5.27,9.17l-57,32.71A5.21,5.21,0,0,1,347,221.19Z"/><path class="cls-13" d="M347,219.87a4,4,0,0,1-3.45-2L299.77,141a4,4,0,1,1,6.89-3.92L350.4,214a4,4,0,0,1-3.45,5.92Z"/><path class="cls-14" d="M354.22,215.91a7.28,7.28,0,1,1-7.27-7.28A7.27,7.27,0,0,1,354.22,215.91Z"/><path class="cls-14" d="M339.21,114h-6.86V91.25h-6.62V86.4l13.48-2.08Z"/><path class="cls-14" d="M369.51,114H348.76v-4.48l9.53-10a20.06,20.06,0,0,0,2.67-3.7,6.3,6.3,0,0,0,.85-2.83,4.11,4.11,0,0,0-.86-2.73,3.23,3.23,0,0,0-2.6-1,2.79,2.79,0,0,0-2.43,1.31,5.88,5.88,0,0,0-.89,3.35h-6.72l0-.12a9.24,9.24,0,0,1,2.69-7,9.84,9.84,0,0,1,7.39-2.86q4.89,0,7.62,2.4a8.27,8.27,0,0,1,2.74,6.57,8.67,8.67,0,0,1-1.45,5,62.63,62.63,0,0,1-5.37,6.42l-4,4.29.06.12h11.57Z"/><path class="cls-14" d="M348.88,312.12a14.62,14.62,0,0,1,3.12.3,19.31,19.31,0,0,1,3,.95l-1.14,5c-.95-.29-1.78-.5-2.49-.65a12.9,12.9,0,0,0-2.46-.21,4.91,4.91,0,0,0-3.92,1.72,7.32,7.32,0,0,0-1.41,5l.06.1a5.94,5.94,0,0,1,2.38-1.59,9.39,9.39,0,0,1,3.38-.57,7.37,7.37,0,0,1,6.18,2.86,11.66,11.66,0,0,1,2.21,7.32,9.93,9.93,0,0,1-2.92,7.32,10.11,10.11,0,0,1-7.46,2.92,10.25,10.25,0,0,1-7.86-3.19c-2-2.13-3-5.05-3-8.76v-6q0-5.86,3.45-9.23A12.16,12.16,0,0,1,348.88,312.12Zm-1.36,15.38a6.89,6.89,0,0,0-2.45.38,3.85,3.85,0,0,0-1.62,1.08v1.74a9.5,9.5,0,0,0,1.05,4.92,3.25,3.25,0,0,0,2.92,1.71,2.93,2.93,0,0,0,2.52-1.46,6.92,6.92,0,0,0,0-7.05A2.89,2.89,0,0,0,347.52,327.5Z"/><path class="cls-14" d="M226.05,223.23a4.42,4.42,0,0,0,3.4-1.48,5.87,5.87,0,0,0,1.34-4.08v-1.31a6.46,6.46,0,0,1-5.13,2.47,7.84,7.84,0,0,1-6.34-2.74,11.3,11.3,0,0,1-2.29-7.48,10.57,10.57,0,0,1,2.89-7.51,9.77,9.77,0,0,1,7.45-3.08,9.46,9.46,0,0,1,7.38,3.24c1.94,2.16,2.9,5.12,2.9,8.89v7a10.76,10.76,0,0,1-3.29,8.22,11.65,11.65,0,0,1-8.31,3.1,15.42,15.42,0,0,1-3.17-.34,17.63,17.63,0,0,1-3.12-.94l.71-4.91a18.4,18.4,0,0,0,2.7.68A17.76,17.76,0,0,0,226.05,223.23Zm1.12-9.35a5.2,5.2,0,0,0,2.09-.41,4.22,4.22,0,0,0,1.53-1.12v-3a8.48,8.48,0,0,0-1-4.45,2.88,2.88,0,0,0-2.48-1.54,2.8,2.8,0,0,0-2.51,1.61,7.23,7.23,0,0,0-.93,3.69,7.8,7.8,0,0,0,.81,3.86A2.66,2.66,0,0,0,227.17,213.88Z"/><path class="cls-14" d="M462.45,210.4h3.24a3.85,3.85,0,0,0,2.85-1,3.76,3.76,0,0,0,1-2.77,3.33,3.33,0,0,0-.9-2.36,3.38,3.38,0,0,0-2.6-1,3.79,3.79,0,0,0-2.37.78,2.4,2.4,0,0,0-1,2H456l0-.12a6.57,6.57,0,0,1,2.79-5.74,11.34,11.34,0,0,1,7.06-2.2,12.42,12.42,0,0,1,7.72,2.21,7.43,7.43,0,0,1,2.89,6.26,6.19,6.19,0,0,1-1.25,3.72,8.51,8.51,0,0,1-3.35,2.65,8,8,0,0,1,3.72,2.66,6.86,6.86,0,0,1,1.35,4.26,7.57,7.57,0,0,1-3.12,6.41,12.94,12.94,0,0,1-8,2.33,12.42,12.42,0,0,1-7.3-2.19,7,7,0,0,1-3-6.34l0-.12h6.72a3.05,3.05,0,0,0,1.11,2.39,4,4,0,0,0,2.7,1,4,4,0,0,0,2.89-1,3.39,3.39,0,0,0,1.08-2.57,4,4,0,0,0-1.13-3.14,4.7,4.7,0,0,0-3.19-1h-3.24Z"/><path class="cls-3" d="M683.8,258.28A22.18,22.18,0,1,1,706,236.11,22.2,22.2,0,0,1,683.8,258.28Zm0-39.06a16.89,16.89,0,1,0,16.89,16.89A16.9,16.9,0,0,0,683.8,219.22Z"/><path class="cls-3" d="M656,258.28a22.18,22.18,0,1,1,22.17-22.17A22.2,22.2,0,0,1,656,258.28Zm0-39.06a16.89,16.89,0,1,0,16.89,16.89A16.9,16.9,0,0,0,656,219.22Z"/><path class="cls-3" d="M625.83,258.28A22.18,22.18,0,1,1,648,236.11,22.2,22.2,0,0,1,625.83,258.28Zm0-39.06a16.89,16.89,0,1,0,16.88,16.89A16.91,16.91,0,0,0,625.83,219.22Z"/><path class="cls-3" d="M598,258.28a22.18,22.18,0,1,1,22.17-22.17A22.2,22.2,0,0,1,598,258.28Zm0-39.06a16.89,16.89,0,1,0,16.88,16.89A16.91,16.91,0,0,0,598,219.22Z"/><path class="cls-3" d="M569.12,258.28a22.18,22.18,0,1,1,22.17-22.17A22.19,22.19,0,0,1,569.12,258.28Zm0-39.06A16.89,16.89,0,1,0,586,236.11,16.91,16.91,0,0,0,569.12,219.22Z"/><path class="cls-3" d="M541.31,258.28a22.18,22.18,0,1,1,22.17-22.17A22.19,22.19,0,0,1,541.31,258.28Zm0-39.06a16.89,16.89,0,1,0,16.88,16.89A16.91,16.91,0,0,0,541.31,219.22Z"/><path class="cls-3" d="M510.23,258.28a22.18,22.18,0,1,1,22.18-22.17A22.2,22.2,0,0,1,510.23,258.28Zm0-39.06a16.89,16.89,0,1,0,16.89,16.89A16.9,16.9,0,0,0,510.23,219.22Z"/><path class="cls-14" d="M706.29,427.3H398.11a5.14,5.14,0,0,1-5.18-6.38l33.48-178.43a8.05,8.05,0,0,1,7.58-6.38H742.16a5.14,5.14,0,0,1,5.19,6.38L713.86,420.92A8.05,8.05,0,0,1,706.29,427.3Z"/><path class="cls-10" d="M712.05,427.3H403.88a5.14,5.14,0,0,1-5.18-6.38l33.48-178.43a8,8,0,0,1,7.58-6.38H747.93a5.14,5.14,0,0,1,5.18,6.38L719.63,420.92A8.06,8.06,0,0,1,712.05,427.3Z"/><path class="cls-14" d="M774.23,427.3H466.06a7.94,7.94,0,0,1-7.51-6.38L427.09,242.49a5.2,5.2,0,0,1,5.25-6.38H740.52a7.93,7.93,0,0,1,7.5,6.38l31.47,178.43A5.21,5.21,0,0,1,774.23,427.3Z"/><path class="cls-12" d="M780.66,427.3H472.48a7.94,7.94,0,0,1-7.5-6.38L433.51,242.49a5.21,5.21,0,0,1,5.26-6.38H746.94a7.93,7.93,0,0,1,7.51,6.38l31.46,178.43A5.21,5.21,0,0,1,780.66,427.3Z"/><path class="cls-14" d="M698.44,253.54c1.06,3,.14,5.37-2.07,5.37s-4.86-2.41-5.93-5.37-.13-5.38,2.08-5.38S697.38,250.57,698.44,253.54Z"/><path class="cls-14" d="M670.22,253.54c1.06,3,.13,5.37-2.07,5.37s-4.86-2.41-5.93-5.37-.13-5.38,2.08-5.38S669.16,250.57,670.22,253.54Z"/><path class="cls-14" d="M638.89,253.54c1.06,3,.13,5.37-2.08,5.37s-4.86-2.41-5.92-5.37-.13-5.38,2.08-5.38S637.83,250.57,638.89,253.54Z"/><path class="cls-14" d="M610.67,253.54c1.06,3,.13,5.37-2.08,5.37s-4.86-2.41-5.92-5.37-.13-5.38,2.07-5.38S609.6,250.57,610.67,253.54Z"/><path class="cls-14" d="M583.39,254c1.06,3,.13,5.37-2.07,5.37s-4.86-2.4-5.93-5.37-.13-5.37,2.08-5.37S582.33,251.07,583.39,254Z"/><path class="cls-14" d="M556.64,254c1.06,3,.13,5.37-2.08,5.37s-4.86-2.4-5.92-5.37-.13-5.37,2.08-5.37S555.58,251.07,556.64,254Z"/><path class="cls-14" d="M526.83,254c1.06,3,.13,5.37-2.07,5.37s-4.86-2.4-5.93-5.37-.13-5.37,2.08-5.37S525.77,251.07,526.83,254Z"/><path class="cls-3" d="M693.13,255.92a2.65,2.65,0,0,1-1.27-5,16.89,16.89,0,0,0-8.06-31.73,2.65,2.65,0,0,1,0-5.29,22.17,22.17,0,0,1,10.59,41.66A2.61,2.61,0,0,1,693.13,255.92Z"/><path class="cls-3" d="M665.2,256a2.65,2.65,0,0,1-1.25-5,16.89,16.89,0,0,0-7.15-31.76,2.64,2.64,0,1,1,.25-5.28,22.18,22.18,0,0,1,9.4,41.7A2.58,2.58,0,0,1,665.2,256Z"/><path class="cls-3" d="M634.14,256.43a2.65,2.65,0,0,1-1.13-5,16.89,16.89,0,0,0-6.39-32.15,2.64,2.64,0,0,1,.24-5.28,22.18,22.18,0,0,1,8.4,42.22A2.64,2.64,0,0,1,634.14,256.43Z"/><path class="cls-3" d="M605.76,256.68a2.64,2.64,0,0,1-1-5.07,16.89,16.89,0,0,0-5.9-32.37,2.64,2.64,0,0,1,.24-5.28,22.18,22.18,0,0,1,7.76,42.51A2.77,2.77,0,0,1,605.76,256.68Z"/><path class="cls-3" d="M577.93,256.18a2.64,2.64,0,0,1-1.19-5A16.89,16.89,0,0,0,570,219.24a2.64,2.64,0,0,1,.27-5.28,22.18,22.18,0,0,1,8.86,41.94A2.7,2.7,0,0,1,577.93,256.18Z"/><path class="cls-3" d="M551.05,255.69a2.65,2.65,0,0,1-1.33-4.94,16.89,16.89,0,0,0-6.81-31.45,2.65,2.65,0,0,1,.49-5.27,22.18,22.18,0,0,1,9,41.3A2.61,2.61,0,0,1,551.05,255.69Z"/><path class="cls-3" d="M520.94,255.09a2.64,2.64,0,0,1-1.46-4.85,16.89,16.89,0,0,0-7.06-30.88,2.64,2.64,0,1,1,.67-5.24,22.17,22.17,0,0,1,9.29,40.54A2.63,2.63,0,0,1,520.94,255.09Z"/><path class="cls-5" d="M770.61,421.44H480.46a6.91,6.91,0,0,1-6.53-5.56l-25.3-143.47a4.54,4.54,0,0,1,4.57-5.56H743.35a6.92,6.92,0,0,1,6.54,5.56l25.3,143.47A4.54,4.54,0,0,1,770.61,421.44Z"/><path class="cls-4" d="M764.07,412.09H483.71l0-.22L459.75,276.2H740.11l0,.22Zm-279.92-.53H763.44L739.66,276.73H460.38Z"/><rect class="cls-4" x="479.15" y="384.49" width="279.82" height="0.53"/><rect class="cls-4" x="474.38" y="357.42" width="279.82" height="0.53"/><rect class="cls-4" x="469.61" y="330.35" width="279.82" height="0.53"/><rect class="cls-4" x="464.83" y="303.28" width="279.82" height="0.53"/><rect class="cls-4" x="711.58" y="275.42" width="0.53" height="137.45" transform="translate(-48.95 128.84) rotate(-10)"/><rect class="cls-4" x="671.6" y="275.42" width="0.53" height="137.45" transform="translate(-49.55 121.9) rotate(-10)"/><rect class="cls-4" x="631.63" y="275.42" width="0.53" height="137.45" transform="translate(-50.16 114.95) rotate(-10)"/><rect class="cls-4" x="591.65" y="275.42" width="0.53" height="137.45" transform="translate(-50.77 108.01) rotate(-10)"/><rect class="cls-4" x="551.68" y="275.42" width="0.53" height="137.45" transform="translate(-51.38 101.07) rotate(-10)"/><rect class="cls-4" x="511.7" y="275.42" width="0.53" height="137.45" transform="translate(-51.98 94.13) rotate(-10)"/><path class="cls-9" d="M732.43,293.56H723a8.13,8.13,0,0,1-7.67-6.52,5.33,5.33,0,0,1,5.37-6.53h9.41A8.14,8.14,0,0,1,737.8,287,5.33,5.33,0,0,1,732.43,293.56Z"/><path class="cls-9" d="M745.48,348.19H729.24a3.89,3.89,0,0,1-3.66-3.11l-1.2-6.83a2.54,2.54,0,0,1,2.56-3.11h16.24a3.89,3.89,0,0,1,3.66,3.11l1.2,6.83A2.54,2.54,0,0,1,745.48,348.19Z"/><path class="cls-4" d="M539.43,326.64H517.35a5.53,5.53,0,0,1-5.22-4.44l-1.83-10.39a3.64,3.64,0,0,1,3.66-4.44H536a5.54,5.54,0,0,1,5.22,4.44l1.83,10.39A3.63,3.63,0,0,1,539.43,326.64Z"/><path class="cls-5" d="M535.85,323.93H520a4,4,0,0,1-3.75-3.19l-1.32-7.47a2.6,2.6,0,0,1,2.63-3.18h15.86a4,4,0,0,1,3.75,3.18l1.31,7.47A2.61,2.61,0,0,1,535.85,323.93Z"/><path class="cls-4" d="M714,407.68H691.89a5.54,5.54,0,0,1-5.22-4.44l-1.83-10.4a3.63,3.63,0,0,1,3.65-4.44h22.08a5.54,5.54,0,0,1,5.22,4.44l1.84,10.4A3.64,3.64,0,0,1,714,407.68Z"/><path class="cls-5" d="M710.38,405H694.52a4,4,0,0,1-3.75-3.19l-1.32-7.46a2.61,2.61,0,0,1,2.63-3.19h15.86a4,4,0,0,1,3.75,3.19l1.32,7.46A2.61,2.61,0,0,1,710.38,405Z"/><path class="cls-4" d="M619.77,313h-17.3a2.66,2.66,0,0,1-2.5-2.13,1.73,1.73,0,0,1,1.75-2.12H619a2.65,2.65,0,0,1,2.5,2.12A1.74,1.74,0,0,1,619.77,313Z"/><path class="cls-4" d="M620.94,319.66H603.65a2.64,2.64,0,0,1-2.5-2.12,1.74,1.74,0,0,1,1.75-2.13h17.3a2.65,2.65,0,0,1,2.49,2.13A1.73,1.73,0,0,1,620.94,319.66Z"/><path class="cls-4" d="M595.74,393.56h-17.3a2.64,2.64,0,0,1-2.5-2.12,1.74,1.74,0,0,1,1.75-2.13H595a2.65,2.65,0,0,1,2.49,2.13A1.73,1.73,0,0,1,595.74,393.56Z"/><path class="cls-4" d="M596.91,400.24h-17.3a2.66,2.66,0,0,1-2.5-2.12,1.75,1.75,0,0,1,1.75-2.13h17.3a2.65,2.65,0,0,1,2.5,2.13A1.74,1.74,0,0,1,596.91,400.24Z"/><path class="cls-4" d="M497.14,343h-17.3a2.65,2.65,0,0,1-2.5-2.12,1.74,1.74,0,0,1,1.75-2.13h17.3a2.65,2.65,0,0,1,2.5,2.13A1.73,1.73,0,0,1,497.14,343Z"/><path class="cls-4" d="M498.32,349.71H481a2.66,2.66,0,0,1-2.5-2.13,1.74,1.74,0,0,1,1.75-2.12h17.3a2.66,2.66,0,0,1,2.5,2.12A1.74,1.74,0,0,1,498.32,349.71Z"/><path class="cls-8" d="M551.83,381.72H526.2a5,5,0,0,1-4.74-4l-2-11.5a3.3,3.3,0,0,1,3.32-4h25.63a5,5,0,0,1,4.74,4l2,11.5A3.29,3.29,0,0,1,551.83,381.72Z"/><path class="cls-5" d="M536.28,377a.54.54,0,0,1-.36-.14l-5.75-5.45a.53.53,0,0,1,0-.75.53.53,0,0,1,.75,0l5.35,5.07,8.11-9.6a.54.54,0,0,1,.75-.06.52.52,0,0,1,.06.74l-8.47,10a.55.55,0,0,1-.38.18Z"/><path class="cls-8" d="M657,299.32H631.4a5,5,0,0,1-4.74-4l-2-11.5a3.3,3.3,0,0,1,3.32-4h25.63a5,5,0,0,1,4.74,4l2,11.5A3.29,3.29,0,0,1,657,299.32Z"/><path class="cls-5" d="M641.48,294.61a.54.54,0,0,1-.36-.14L635.37,289a.51.51,0,0,1,0-.74.51.51,0,0,1,.74,0l5.35,5.07,8.11-9.6a.54.54,0,0,1,.75-.06.52.52,0,0,1,.06.74l-8.47,10a.51.51,0,0,1-.38.18Z"/><path class="cls-4" d="M665.1,371.26c.88,5-2.47,9.1-7.5,9.1a11.32,11.32,0,0,1-10.71-9.1c-.89-5,2.47-9.11,7.5-9.11A11.35,11.35,0,0,1,665.1,371.26Z"/><path class="cls-4" d="M552.08,399c.89,5-2.47,9.1-7.5,9.1a11.34,11.34,0,0,1-10.71-9.1c-.88-5,2.48-9.11,7.5-9.11A11.33,11.33,0,0,1,552.08,399Z"/><path class="cls-4" d="M98.6,219.49h41.66A41.66,41.66,0,1,1,98.6,177.84Z"/><path class="cls-9" d="M147.23,213.66A41.65,41.65,0,0,0,105.58,172v41.65Z"/><rect class="cls-4" x="64.09" y="361.04" width="25.76" height="54.37"/><rect class="cls-4" x="143.72" y="304.23" width="25.76" height="111.17"/><rect class="cls-4" x="183.53" y="358.23" width="25.76" height="57.18"/><rect class="cls-4" x="223.35" y="342.05" width="25.76" height="73.36"/><rect class="cls-4" x="103.9" y="325.14" width="25.76" height="90.26"/><rect class="cls-4" x="263.29" y="276.73" width="25.76" height="138.68"/><rect class="cls-15" x="66.66" y="363.62" width="23.13" height="54.37"/><rect class="cls-15" x="146.29" y="306.81" width="23.13" height="111.17"/><rect class="cls-15" x="186.11" y="360.81" width="23.13" height="57.18"/><rect class="cls-15" x="225.92" y="344.62" width="23.13" height="73.36"/><rect class="cls-15" x="106.48" y="327.72" width="23.13" height="90.26"/><rect class="cls-15" x="265.87" y="279.3" width="23.13" height="138.68"/><path class="cls-13" d="M57,346.16a4,4,0,0,1-2.26-7.22l100.9-70.09a4,4,0,0,1,5.23.63l37.09,41.82,79.43-76a4,4,0,0,1,5.49,5.73l-82.42,78.82a4,4,0,0,1-2.9,1.1,4,4,0,0,1-2.81-1.33l-37.47-42.27-98,68.08A4,4,0,0,1,57,346.16Z"/><path class="cls-13" d="M278.73,259.28a4.43,4.43,0,0,1-.8-.08,4,4,0,0,1-3.09-4.68l2.85-13.93-15.19,1.54a4,4,0,1,1-.8-7.89l20.56-2.08a4,4,0,0,1,4.28,4.74l-3.93,19.21A4,4,0,0,1,278.73,259.28Z"/><path class="cls-16" d="M704.36,199.07c7.1-14.22,25.69-20.66,31-4.83s7.1,16.84,14.53,23.47c25.78,23-13.42,36.76-27.22,42.8S703.33,241,702.28,220.62C701.46,204.73,702.28,203.23,704.36,199.07Z"/><path class="cls-17" d="M725.33,413.54c1.39,5.65-1.36,10.13-5,13.4-3,2.66-12.18,3.78-11.74,5.11s11.29,1.75,15,1.2,4.65-2.33,9.19-2.32c3,0,3.54-2.43,2.21-5.42s-1.79-4.65-.59-7.34S725.33,413.54,725.33,413.54Z"/><path class="cls-17" d="M779.53,413.54c-.22,5.87-.9,10.24.54,13,5.56,4.65,10.18,9.93,8.41,10.29-8.41,1.74-11.62-3.3-16.38-4.74-5.84-1.76.55-9.1-1.74-18.51-1.27-5.23,8.82-4,8.82-4Z"/><path class="cls-13" d="M739.83,279.65c-3.69,31-10.39,53.91-11.14,68.6S725,420.8,725,420.8s8.22-.58,9-1.82,15.44-33.87,14.69-54,14.68-50.85,14.68-50.85L759.57,284Z"/><path class="cls-18" d="M743.38,293.14l-5.78,2.42c-1.57,9.83-3.31,18.66-4.83,26.5,9.18,5.94,13.93,25.72,16,37.82,1-13.54,7.42-29.89,11.38-38.93Z"/><path class="cls-13" d="M770,276.53s12.44,15.86,12.05,33.87c-.6,27.4-3.58,35.22,1.61,64,2,11.22-4.48,47.93-4.48,47.93s-5.56.44-8.55-1.05c.25-2.7-3.6-46.58-11.09-66.75-3.62-9.76-8.72-37.12-11.46-52.81s-3.23-18.93-2.24-18.93S770,276.53,770,276.53Z"/><path class="cls-19" d="M659.24,312.71l-17.19,2a2.63,2.63,0,0,1-2.72-1.82,1.73,1.73,0,0,1,1.49-2.31l17.19-2a2.65,2.65,0,0,1,2.72,1.83A1.73,1.73,0,0,1,659.24,312.71Z"/><path class="cls-19" d="M661.17,319.21l-17.18,2a2.67,2.67,0,0,1-2.73-1.82,1.74,1.74,0,0,1,1.5-2.31l17.18-2a2.67,2.67,0,0,1,2.73,1.83A1.74,1.74,0,0,1,661.17,319.21Z"/><path class="cls-20" d="M672.31,303.05c-5.15,1.63-8.25,2-11.9,1.71s-6,1.89-8.19,2.75-3,2.21.6,1.72a45,45,0,0,1,5.35-.49,13.6,13.6,0,0,1,3.8,1.44,15.11,15.11,0,0,1,1.9,1.65A3.32,3.32,0,0,1,664,316c-1,1.28-1.63,2.68-2.64,3.18-1.91.94-.11,2.07,1.79.94s2.83-2.59,4.2-4.12c2-2.18,3.78-5.7,5.58-7.27S672.31,303.05,672.31,303.05Z"/><path class="cls-7" d="M723.78,241.64c-8.36,17.18-16.26,35.56-26.74,44.15s-27.2,17.75-27.2,17.75,2.3,6.46,3.33,6.63,25.94-8.64,33.15-13.42,22.46-21,22.46-21Z"/><path class="cls-21" d="M723,281.88c6.87-6.18,13.61-16.36,13.4-17.43-.28-1.44-10.41-28-10.41-28q-3.29,7.73-5.72,13.68C721.26,262.17,725.77,274.05,723,281.88Z"/><path class="cls-7" d="M738.47,218.76s18.59,2.21,27.07,14.93,4.54,33.65,6.62,43.31-26.08,21.65-29.64,11.8c-3.41-9.45-17.85-26.91-19.29-32.17-3.37-12.33,8.85-33.34,8.85-33.34Z"/><path class="cls-20" d="M727.37,202.32l14.28,18.4s-5.21,8.17-12.72,26c-2.74-9.08,1.22-21.5,1.22-21.5l-12.21-17.83Z"/><path class="cls-22" d="M734,210.9l-6.66-8.58-9.43,5.09,12.21,17.83s-.21,1-.49,2.5A25.58,25.58,0,0,0,734,210.9Z"/><path class="cls-20" d="M725.34,208.37c.57,7.29-5.17,13.48-10.68,13.92s-8.71-5.07-9.28-12.36,3.43-13.55,9-14S724.77,201.08,725.34,208.37Z"/><path class="cls-7" d="M738.56,271.4c2.33,14.74-6.31,46.28-6.31,46.28s5.15,1.17,20.59-.32,22.25-16.91,24.57-17.34,3.52,14.34,4.67,15.51,1.32-18.65-1.68-26.44c-5.31-13.82-4.27-19.68-2.29-28C781.65,246.16,738.56,271.4,738.56,271.4Z"/><path class="cls-21" d="M781.66,293.89a27.61,27.61,0,0,0-1.26-4.8c-5.31-13.82-4.27-19.68-2.29-28,.16-.66-12.33-20.72-12.33-20.72l-16.23-17.45c-15.58,25.29,3.24,37.27,1.77,47.06s-9,17.25-9,17.25l.53,3.47a8.83,8.83,0,0,0,9.93,7.42c6.73-.93,15.56-2.81,19.49-6.46S779.43,290.82,781.66,293.89Z"/><path class="cls-20" d="M743.37,289.57s-6.77,3.18-7.55,3.77-.85,3-.85,3-3.47,4.22-1.7,5.2,5.08,3.69,8.52,1.6c2.1-1.29,2.46-9.88,3.93-10.2S743.37,289.57,743.37,289.57Z"/><path class="cls-7" d="M752.63,221.64c7.65-1.07,16.85,11.47,21.26,23s9.78,28,9.78,28-10.94,12.07-22.9,17.08C750.33,294,745,295.92,745,295.92l-3.25-5.83,23.43-19.65s-12.6-16.4-15.83-29.83S746.82,222.45,752.63,221.64Z"/><path class="cls-16" d="M704,202c5.1,12.87,19.94,6.39,23.82,4.08s4.84,29.29,13.36,28c6.26-.9,3-8.64,9.11-11.83a7.27,7.27,0,0,1,8.07.91,9.43,9.43,0,0,0-4.32-3.75c-2.89-1.18-14.38-8.91-19-17s-16.85-10-19.93-9.09-9.24,7-9.24,7Z"/><path class="cls-16" d="M740.89,237.58c-5.66,0-8.13-11.13-11-23.94-.57-2.56-1.16-5.2-1.77-7.74a.64.64,0,0,1,1.25-.3c.62,2.55,1.21,5.2,1.77,7.76,2.58,11.59,5.24,23.57,10.17,22.9,3-.41,3.56-6.9,3.1-12.83a.65.65,0,0,1,.59-.7.64.64,0,0,1,.69.6c.32,4,.53,13.55-4.21,14.2A4.44,4.44,0,0,1,740.89,237.58Z"/><path class="cls-16" d="M741.12,241a3.52,3.52,0,0,1-1.63-.41c-7.27-3.66-12.09-33.11-12.29-34.36a.65.65,0,0,1,.54-.74.64.64,0,0,1,.73.54c1.35,8.35,6,30.62,11.6,33.41a2.22,2.22,0,0,0,2.12,0c2.44-1.27,2.67-5.41,2.87-9.06s.4-7.17,2.81-8a.65.65,0,0,1,.39,1.23c-1.56.5-1.73,3.56-1.91,6.79-.22,4-.48,8.53-3.57,10.13A3.62,3.62,0,0,1,741.12,241Z"/><path class="cls-20" d="M729.3,208.39c-.57,1.76-2.07,2.86-3.35,2.45s-1.85-2.19-1.28-4,2.08-2.87,3.36-2.45S729.88,206.62,729.3,208.39Z"/><path class="cls-11" d="M308.17,406.7S259,372.57,238.25,392.25c-16.6,15.72,12.86,34.18,50.55,29.21C315.33,418,318.34,423,323,422.93c34.57-2.65,81.16-13,58.49-29.24-30.89-22.14-51.78,1.33-62.54,7.17Z"/><path class="cls-23" d="M371.71,392.87c-12.92-2.67-62.12,15.58-62.12,15.58s-42.84-12.92-53.1-14.15-15,2.67-15,2.67,4.84-5.45,10.45-6,13.74-1.84,13.74-1.84,82-3.9,92.87-1.44S371.71,392.87,371.71,392.87Z"/><path class="cls-24" d="M302,326.45c-1.94.3-32.23,13.52-32.61,19.05s8.3,50.44,25.07,56.28,35.53,0,35.53,0S349.69,353.2,343.84,344s-32.28-17.52-32.28-17.52Z"/><path class="cls-24" d="M279.76,336.91c-28.94,15.5-36,43.5-28.39,49.67,5.36,4.32,25.58,13.89,43.11,13.27a286.57,286.57,0,0,1,34,1s30.07-6.12,36.06-15.13S353.89,347.48,339,339,279.76,336.91,279.76,336.91Z"/><path class="cls-20" d="M307.35,344a7.29,7.29,0,0,1-7.27-7.27V312.2a7.28,7.28,0,1,1,14.55,0v24.5A7.29,7.29,0,0,1,307.35,344Z"/><path class="cls-22" d="M307.35,304.92a7.3,7.3,0,0,0-7.27,7.28v20c4.29,3.59,8.44,1.71,14.55-3v-17A7.3,7.3,0,0,0,307.35,304.92Z"/><path class="cls-20" d="M323.33,313.19c-1.2,2.44-3.14,3.8-4.34,3s-1.2-3.37,0-5.81,3.14-3.8,4.34-3S324.52,310.75,323.33,313.19Z"/><path class="cls-20" d="M295.17,310.58c1.38,2.22,1.65,4.9.59,6s-3,.18-4.41-2-1.65-4.91-.6-6S293.79,308.36,295.17,310.58Z"/><path class="cls-20" d="M320.2,313c0,8.9-5.61,16.12-12.52,16.12s-12.51-7.22-12.51-16.12,5.6-16.11,12.51-16.11S320.2,304.13,320.2,313Z"/><path class="cls-25" d="M335,352.92c8.2,4.38,15.35,20.95,15.35,20.95s-18.45,2.87-22.28,5.74.55-1.09,2.74-9S335,352.92,335,352.92Z"/><path class="cls-25" d="M277.88,351.73C279.8,360.48,289,384.9,289,384.9s-8.48-9.66-17.49-10.21-12.36-.68-12.3,1.5c0,.43,1.5-9.7,8.47-16A103.93,103.93,0,0,1,277.88,351.73Z"/><path class="cls-26" d="M332.85,406.8H283.34a4.09,4.09,0,0,1-4-3.41l-6-35.64a4.08,4.08,0,0,1,4-4.76h61.46a4.08,4.08,0,0,1,4,4.76l-6,35.64A4.09,4.09,0,0,1,332.85,406.8Z"/><path class="cls-27" d="M332.85,406.8H283.34a4,4,0,0,1-4-3.29l-6-34.35a4,4,0,0,1,4-4.58h61.46a4,4,0,0,1,4,4.58l-6,34.35A4,4,0,0,1,332.85,406.8Z"/><path class="cls-23" d="M314.63,420.83c-.29-.05-32-8-39.05-2.14s23.68,5.95,29.21,4.67S314.63,420.83,314.63,420.83Z"/><path class="cls-23" d="M321.7,422.25a24.28,24.28,0,0,1,15.69-4.17c8.91.92,16.6,2.87,8.91,5.28a56.68,56.68,0,0,1-19.37,2.41A6.71,6.71,0,0,1,321.7,422.25Z"/><path class="cls-28" d="M303.69,290.31c-8.13,2.47-5.3,25.36,4,24.61s9.67-10.66,9-17.07S312.08,287.77,303.69,290.31Z"/><path class="cls-28" d="M300.76,307.28c-2.26-2.17-5.37,4.66-4.14,7.65s-.49,4.75,1.17,8-3.06-2-3.72-5.91-1-10.56-2-13.57.05-8.25,4.25-9.34,5.18-3,6.78-3.11,9.24.66,13,2.74,5.84,5.18,5.56,9.89-1.51,16.78-2.64,18.76-1.72,1.51-1.38.38,1.57-7.92.63-10.37-.47-8.48-2.93-8.95-1.88,3.7-4.8,4A85.35,85.35,0,0,1,300.76,307.28Z"/></g></g></svg>